<?xml version="1.0" encoding="UTF-8"?><svg id="Layer_1" xmlns="http://www.w3.org/2000/svg" viewBox="0 0 88 93"><defs><style>.cls-1{fill:#f4f4f4;}</style></defs><path class="cls-1" d="M43.87,11.3c19.94-.15,35.38,16.25,35.34,35.23-.04,19.36-15.92,35.27-35.32,35.16-19.26-.1-35.13-15.53-35.1-35.31,.03-19.35,15.66-35.08,35.07-35.08Zm31.31,35.18c0-17.24-13.96-31.12-31.03-31.18-17.32-.06-31.33,13.89-31.34,31.18-.01,17.2,13.97,31.19,31.17,31.18,17.29,0,31.2-13.98,31.2-31.19Z"/><path class="cls-1" d="M45.23,62.76c-3.33,0-5.65,.01-7.96,0-.89,0-1.78-.05-2.67-.2-1.39-.24-2.3-1.12-2.76-2.37-.66-1.78-.43-3.58,.26-5.32,1.18-2.97,3.25-5.15,6.03-6.66,2.65-1.45,5.48-1.81,8.42-1.16,4.53,1,7.57,3.76,9.37,7.97,.56,1.32,.69,2.73,.51,4.14-.28,2.06-1.93,3.45-4.01,3.55-2.74,.13-5.47,.02-7.19,.06Z"/><path class="cls-1" d="M43.98,44.59c-3.71,.13-7.14-3.19-7.14-7.12,0-3.86,3.28-7.19,7.14-7.15,4.05,.04,7.16,3.31,7.15,7.22-.01,3.93-3.47,7.2-7.15,7.06Z"/></svg>