<?xml version="1.0" encoding="UTF-8"?><svg id="Layer_1" xmlns="http://www.w3.org/2000/svg" viewBox="0 0 742 304"><defs><style>.cls-1{fill:#f4f4f4;}</style></defs><path class="cls-1" d="M245.01,153.94c0-42.63,19.07-80.78,49.11-106.47V13.88h-89.13l-56.39,76.4L97.68,13.88H8.55V294H97.68V162.66l50.93,73.13,56.39-72.76v130.97h89.13v-33.59c-30.04-25.69-49.11-63.84-49.11-106.47Z"/><path class="cls-1" d="M444.37,188.83c-11.36,21.11-33.65,35.47-59.3,35.47-37.17,0-67.3-30.13-67.3-67.3s30.13-67.3,67.3-67.3c25.65,0,47.94,14.36,59.3,35.47h23.71c4.49-21.5,13.93-41.17,27.05-57.82-25.64-32.55-65.4-53.47-110.06-53.47-34.73,0-66.47,12.66-90.95,33.59v212.94c24.47,20.93,56.22,33.59,90.95,33.59,44.65,0,84.42-20.91,110.06-53.45-11.87-15.06-20.74-32.59-25.65-51.72h-25.12Z"/><path class="cls-1" d="M605.17,224.3c-37.17,0-67.3-30.13-67.3-67.3s30.13-67.3,67.3-67.3c25.65,0,47.94,14.36,59.3,35.47h77.79c-13.27-63.55-69.6-111.28-137.09-111.28-44.65,0-84.39,20.92-110.04,53.46,13.11,16.64,22.54,36.32,27.03,57.82h-54.08c-1.94,9.29-2.97,18.91-2.97,28.78,0,12.04,1.52,23.73,4.38,34.89h51.26c-4.9,19.12-13.75,36.66-25.61,51.72,25.65,32.54,65.38,53.46,110.03,53.46,65.31,0,120.17-44.7,135.68-105.17h-76.38c-11.36,21.11-33.65,35.47-59.3,35.47Z"/></svg>